<mxfile host="app.diagrams.net" agent="Mozilla/5.0 (Windows NT 10.0; Win64; x64) AppleWebKit/537.36 (KHTML, like Gecko) Chrome/136.0.0.0 Safari/537.36 Edg/136.0.0.0" version="27.0.3">
  <diagram name="Trang-1" id="s-OZVKRYsdV8LF8cbQe5">
    <mxGraphModel dx="1034" dy="536" grid="1" gridSize="10" guides="1" tooltips="1" connect="1" arrows="1" fold="1" page="1" pageScale="1" pageWidth="827" pageHeight="1169" math="0" shadow="0">
      <root>
        <mxCell id="0" />
        <mxCell id="1" parent="0" />
        <mxCell id="5ul3691s-s8Z0BjRrySS-1" value="Phim" style="rounded=1;whiteSpace=wrap;html=1;" vertex="1" parent="1">
          <mxGeometry x="130" y="170" width="120" height="60" as="geometry" />
        </mxCell>
        <mxCell id="5ul3691s-s8Z0BjRrySS-2" value="&lt;b&gt;&lt;u&gt;Tên Phim&lt;/u&gt;&lt;/b&gt;" style="text;html=1;align=center;verticalAlign=middle;whiteSpace=wrap;rounded=0;" vertex="1" parent="1">
          <mxGeometry x="280" y="130" width="60" height="30" as="geometry" />
        </mxCell>
        <mxCell id="5ul3691s-s8Z0BjRrySS-3" value="Đạo Diễn" style="text;html=1;align=center;verticalAlign=middle;whiteSpace=wrap;rounded=0;" vertex="1" parent="1">
          <mxGeometry x="280" y="170" width="60" height="30" as="geometry" />
        </mxCell>
        <mxCell id="5ul3691s-s8Z0BjRrySS-4" value="Diễn Viên" style="text;html=1;align=center;verticalAlign=middle;whiteSpace=wrap;rounded=0;" vertex="1" parent="1">
          <mxGeometry x="280" y="210" width="60" height="30" as="geometry" />
        </mxCell>
        <mxCell id="5ul3691s-s8Z0BjRrySS-5" value="Thể Loại" style="text;html=1;align=center;verticalAlign=middle;whiteSpace=wrap;rounded=0;" vertex="1" parent="1">
          <mxGeometry x="280" y="250" width="60" height="30" as="geometry" />
        </mxCell>
        <mxCell id="5ul3691s-s8Z0BjRrySS-6" value="Thời Lượng" style="text;html=1;align=center;verticalAlign=middle;whiteSpace=wrap;rounded=0;" vertex="1" parent="1">
          <mxGeometry x="280" y="290" width="60" height="30" as="geometry" />
        </mxCell>
        <mxCell id="5ul3691s-s8Z0BjRrySS-7" value="" style="endArrow=none;html=1;rounded=0;entryX=0;entryY=0.5;entryDx=0;entryDy=0;" edge="1" parent="1" target="5ul3691s-s8Z0BjRrySS-2">
          <mxGeometry width="50" height="50" relative="1" as="geometry">
            <mxPoint x="250" y="200" as="sourcePoint" />
            <mxPoint x="280" y="145" as="targetPoint" />
          </mxGeometry>
        </mxCell>
        <mxCell id="5ul3691s-s8Z0BjRrySS-8" value="" style="endArrow=none;html=1;rounded=0;entryX=0;entryY=0.5;entryDx=0;entryDy=0;" edge="1" parent="1" target="5ul3691s-s8Z0BjRrySS-3">
          <mxGeometry width="50" height="50" relative="1" as="geometry">
            <mxPoint x="250" y="200" as="sourcePoint" />
            <mxPoint x="300" y="150" as="targetPoint" />
          </mxGeometry>
        </mxCell>
        <mxCell id="5ul3691s-s8Z0BjRrySS-9" value="" style="endArrow=none;html=1;rounded=0;entryX=0;entryY=0.5;entryDx=0;entryDy=0;" edge="1" parent="1" target="5ul3691s-s8Z0BjRrySS-4">
          <mxGeometry width="50" height="50" relative="1" as="geometry">
            <mxPoint x="250" y="200" as="sourcePoint" />
            <mxPoint x="300" y="150" as="targetPoint" />
          </mxGeometry>
        </mxCell>
        <mxCell id="5ul3691s-s8Z0BjRrySS-10" value="" style="endArrow=none;html=1;rounded=0;entryX=0;entryY=0.5;entryDx=0;entryDy=0;" edge="1" parent="1" target="5ul3691s-s8Z0BjRrySS-5">
          <mxGeometry width="50" height="50" relative="1" as="geometry">
            <mxPoint x="250" y="200" as="sourcePoint" />
            <mxPoint x="300" y="150" as="targetPoint" />
          </mxGeometry>
        </mxCell>
        <mxCell id="5ul3691s-s8Z0BjRrySS-11" value="" style="endArrow=none;html=1;rounded=0;entryX=0;entryY=0.5;entryDx=0;entryDy=0;" edge="1" parent="1" target="5ul3691s-s8Z0BjRrySS-6">
          <mxGeometry width="50" height="50" relative="1" as="geometry">
            <mxPoint x="250" y="200" as="sourcePoint" />
            <mxPoint x="300" y="150" as="targetPoint" />
          </mxGeometry>
        </mxCell>
        <mxCell id="5ul3691s-s8Z0BjRrySS-12" value="Rạp Chiếu" style="rounded=1;whiteSpace=wrap;html=1;" vertex="1" parent="1">
          <mxGeometry x="130" y="380" width="120" height="60" as="geometry" />
        </mxCell>
        <mxCell id="5ul3691s-s8Z0BjRrySS-13" value="&lt;b&gt;&lt;u&gt;Tên Rạp&lt;/u&gt;&lt;/b&gt;" style="text;html=1;align=center;verticalAlign=middle;whiteSpace=wrap;rounded=0;" vertex="1" parent="1">
          <mxGeometry x="280" y="360" width="60" height="30" as="geometry" />
        </mxCell>
        <mxCell id="5ul3691s-s8Z0BjRrySS-14" value="Địa Chỉ" style="text;html=1;align=center;verticalAlign=middle;whiteSpace=wrap;rounded=0;" vertex="1" parent="1">
          <mxGeometry x="280" y="395" width="60" height="30" as="geometry" />
        </mxCell>
        <mxCell id="5ul3691s-s8Z0BjRrySS-15" value="" style="endArrow=none;html=1;rounded=0;entryX=0;entryY=0.5;entryDx=0;entryDy=0;" edge="1" parent="1" target="5ul3691s-s8Z0BjRrySS-13">
          <mxGeometry width="50" height="50" relative="1" as="geometry">
            <mxPoint x="250" y="410" as="sourcePoint" />
            <mxPoint x="300" y="360" as="targetPoint" />
          </mxGeometry>
        </mxCell>
        <mxCell id="5ul3691s-s8Z0BjRrySS-16" value="" style="endArrow=none;html=1;rounded=0;entryX=0;entryY=0.5;entryDx=0;entryDy=0;" edge="1" parent="1" target="5ul3691s-s8Z0BjRrySS-14">
          <mxGeometry width="50" height="50" relative="1" as="geometry">
            <mxPoint x="250" y="410" as="sourcePoint" />
            <mxPoint x="300" y="360" as="targetPoint" />
          </mxGeometry>
        </mxCell>
        <mxCell id="5ul3691s-s8Z0BjRrySS-18" value="Phòng Chiếu" style="rounded=1;whiteSpace=wrap;html=1;" vertex="1" parent="1">
          <mxGeometry x="500" y="472.5" width="120" height="60" as="geometry" />
        </mxCell>
        <mxCell id="5ul3691s-s8Z0BjRrySS-19" value="&lt;b&gt;&lt;u&gt;Tên Phòng&lt;/u&gt;&lt;/b&gt;" style="text;html=1;align=center;verticalAlign=middle;whiteSpace=wrap;rounded=0;" vertex="1" parent="1">
          <mxGeometry x="670" y="442.5" width="60" height="30" as="geometry" />
        </mxCell>
        <mxCell id="5ul3691s-s8Z0BjRrySS-20" value="Số Lượng Ghế" style="text;html=1;align=center;verticalAlign=middle;whiteSpace=wrap;rounded=0;" vertex="1" parent="1">
          <mxGeometry x="670" y="487.5" width="60" height="30" as="geometry" />
        </mxCell>
        <mxCell id="5ul3691s-s8Z0BjRrySS-21" value="Sơ Đồ Ghế" style="text;html=1;align=center;verticalAlign=middle;whiteSpace=wrap;rounded=0;" vertex="1" parent="1">
          <mxGeometry x="670" y="532.5" width="60" height="30" as="geometry" />
        </mxCell>
        <mxCell id="5ul3691s-s8Z0BjRrySS-22" value="" style="endArrow=none;html=1;rounded=0;entryX=0;entryY=0.75;entryDx=0;entryDy=0;" edge="1" parent="1" target="5ul3691s-s8Z0BjRrySS-19">
          <mxGeometry width="50" height="50" relative="1" as="geometry">
            <mxPoint x="620" y="502.5" as="sourcePoint" />
            <mxPoint x="670" y="452.5" as="targetPoint" />
          </mxGeometry>
        </mxCell>
        <mxCell id="5ul3691s-s8Z0BjRrySS-23" value="" style="endArrow=none;html=1;rounded=0;entryX=0;entryY=0.5;entryDx=0;entryDy=0;" edge="1" parent="1" target="5ul3691s-s8Z0BjRrySS-20">
          <mxGeometry width="50" height="50" relative="1" as="geometry">
            <mxPoint x="620" y="502.5" as="sourcePoint" />
            <mxPoint x="670" y="452.5" as="targetPoint" />
          </mxGeometry>
        </mxCell>
        <mxCell id="5ul3691s-s8Z0BjRrySS-24" value="" style="endArrow=none;html=1;rounded=0;entryX=0;entryY=0.5;entryDx=0;entryDy=0;" edge="1" parent="1" target="5ul3691s-s8Z0BjRrySS-21">
          <mxGeometry width="50" height="50" relative="1" as="geometry">
            <mxPoint x="620" y="502.5" as="sourcePoint" />
            <mxPoint x="670" y="452.5" as="targetPoint" />
          </mxGeometry>
        </mxCell>
        <mxCell id="5ul3691s-s8Z0BjRrySS-26" value="Suất Chiếu" style="rhombus;whiteSpace=wrap;html=1;" vertex="1" parent="1">
          <mxGeometry x="150" y="465" width="80" height="80" as="geometry" />
        </mxCell>
        <mxCell id="5ul3691s-s8Z0BjRrySS-28" value="" style="endArrow=none;html=1;rounded=0;entryX=0;entryY=0.5;entryDx=0;entryDy=0;exitX=1;exitY=0.5;exitDx=0;exitDy=0;" edge="1" parent="1" source="5ul3691s-s8Z0BjRrySS-26" target="5ul3691s-s8Z0BjRrySS-18">
          <mxGeometry width="50" height="50" relative="1" as="geometry">
            <mxPoint x="220" y="665" as="sourcePoint" />
            <mxPoint x="270" y="615" as="targetPoint" />
          </mxGeometry>
        </mxCell>
        <mxCell id="5ul3691s-s8Z0BjRrySS-29" value="Tên Rạp" style="text;html=1;align=center;verticalAlign=middle;whiteSpace=wrap;rounded=0;" vertex="1" parent="1">
          <mxGeometry x="70" y="562.5" width="60" height="30" as="geometry" />
        </mxCell>
        <mxCell id="5ul3691s-s8Z0BjRrySS-30" value="Tên Phòng" style="text;html=1;align=center;verticalAlign=middle;whiteSpace=wrap;rounded=0;" vertex="1" parent="1">
          <mxGeometry x="160" y="562.5" width="60" height="30" as="geometry" />
        </mxCell>
        <mxCell id="5ul3691s-s8Z0BjRrySS-31" value="Thời Gian" style="text;html=1;align=center;verticalAlign=middle;whiteSpace=wrap;rounded=0;" vertex="1" parent="1">
          <mxGeometry x="240" y="562.5" width="60" height="30" as="geometry" />
        </mxCell>
        <mxCell id="5ul3691s-s8Z0BjRrySS-32" value="" style="endArrow=none;html=1;rounded=0;exitX=0.5;exitY=0;exitDx=0;exitDy=0;" edge="1" parent="1">
          <mxGeometry width="50" height="50" relative="1" as="geometry">
            <mxPoint x="120" y="575" as="sourcePoint" />
            <mxPoint x="190" y="545" as="targetPoint" />
          </mxGeometry>
        </mxCell>
        <mxCell id="5ul3691s-s8Z0BjRrySS-33" value="" style="endArrow=none;html=1;rounded=0;exitX=0.5;exitY=0;exitDx=0;exitDy=0;" edge="1" parent="1" source="5ul3691s-s8Z0BjRrySS-30">
          <mxGeometry width="50" height="50" relative="1" as="geometry">
            <mxPoint x="140" y="595" as="sourcePoint" />
            <mxPoint x="190" y="545" as="targetPoint" />
          </mxGeometry>
        </mxCell>
        <mxCell id="5ul3691s-s8Z0BjRrySS-35" value="" style="endArrow=none;html=1;rounded=0;exitX=0.5;exitY=0;exitDx=0;exitDy=0;" edge="1" parent="1" source="5ul3691s-s8Z0BjRrySS-31">
          <mxGeometry width="50" height="50" relative="1" as="geometry">
            <mxPoint x="140" y="595" as="sourcePoint" />
            <mxPoint x="190" y="545" as="targetPoint" />
          </mxGeometry>
        </mxCell>
        <mxCell id="5ul3691s-s8Z0BjRrySS-36" value="Chiếu" style="rhombus;whiteSpace=wrap;html=1;" vertex="1" parent="1">
          <mxGeometry x="150" y="270" width="80" height="80" as="geometry" />
        </mxCell>
        <mxCell id="5ul3691s-s8Z0BjRrySS-40" value="&lt;b&gt;n : n&lt;/b&gt;" style="text;html=1;align=center;verticalAlign=middle;whiteSpace=wrap;rounded=0;" vertex="1" parent="1">
          <mxGeometry x="210" y="315" width="60" height="50" as="geometry" />
        </mxCell>
        <mxCell id="5ul3691s-s8Z0BjRrySS-42" value="&lt;b&gt;1 : n&lt;/b&gt;" style="text;html=1;align=center;verticalAlign=middle;whiteSpace=wrap;rounded=0;" vertex="1" parent="1">
          <mxGeometry x="200" y="442.5" width="60" height="30" as="geometry" />
        </mxCell>
        <mxCell id="5ul3691s-s8Z0BjRrySS-43" value="" style="endArrow=none;html=1;rounded=0;entryX=0.5;entryY=1;entryDx=0;entryDy=0;exitX=0.5;exitY=0;exitDx=0;exitDy=0;" edge="1" parent="1" source="5ul3691s-s8Z0BjRrySS-36" target="5ul3691s-s8Z0BjRrySS-1">
          <mxGeometry width="50" height="50" relative="1" as="geometry">
            <mxPoint x="190" y="310" as="sourcePoint" />
            <mxPoint x="200" y="230" as="targetPoint" />
          </mxGeometry>
        </mxCell>
        <mxCell id="5ul3691s-s8Z0BjRrySS-44" value="" style="endArrow=none;html=1;rounded=0;exitX=0.5;exitY=0;exitDx=0;exitDy=0;" edge="1" parent="1" source="5ul3691s-s8Z0BjRrySS-12">
          <mxGeometry width="50" height="50" relative="1" as="geometry">
            <mxPoint x="140" y="400" as="sourcePoint" />
            <mxPoint x="190" y="350" as="targetPoint" />
          </mxGeometry>
        </mxCell>
        <mxCell id="5ul3691s-s8Z0BjRrySS-45" value="" style="endArrow=none;html=1;rounded=0;exitX=0.5;exitY=0;exitDx=0;exitDy=0;" edge="1" parent="1">
          <mxGeometry width="50" height="50" relative="1" as="geometry">
            <mxPoint x="190" y="462.5" as="sourcePoint" />
            <mxPoint x="190" y="440" as="targetPoint" />
          </mxGeometry>
        </mxCell>
        <mxCell id="5ul3691s-s8Z0BjRrySS-46" value="Khách Hàng" style="rounded=1;whiteSpace=wrap;html=1;" vertex="1" parent="1">
          <mxGeometry x="414" y="40" width="120" height="60" as="geometry" />
        </mxCell>
        <mxCell id="5ul3691s-s8Z0BjRrySS-47" value="&lt;b&gt;&lt;u&gt;Mã Khách Hàng&lt;/u&gt;&lt;/b&gt;" style="text;html=1;align=center;verticalAlign=middle;whiteSpace=wrap;rounded=0;" vertex="1" parent="1">
          <mxGeometry x="570" y="20" width="60" height="30" as="geometry" />
        </mxCell>
        <mxCell id="5ul3691s-s8Z0BjRrySS-48" value="Họ Tên" style="text;html=1;align=center;verticalAlign=middle;whiteSpace=wrap;rounded=0;" vertex="1" parent="1">
          <mxGeometry x="570" y="60" width="60" height="30" as="geometry" />
        </mxCell>
        <mxCell id="5ul3691s-s8Z0BjRrySS-49" value="SĐT" style="text;html=1;align=center;verticalAlign=middle;whiteSpace=wrap;rounded=0;" vertex="1" parent="1">
          <mxGeometry x="570" y="100" width="60" height="30" as="geometry" />
        </mxCell>
        <mxCell id="5ul3691s-s8Z0BjRrySS-50" value="" style="endArrow=none;html=1;rounded=0;exitX=1;exitY=0.5;exitDx=0;exitDy=0;" edge="1" parent="1" source="5ul3691s-s8Z0BjRrySS-46">
          <mxGeometry width="50" height="50" relative="1" as="geometry">
            <mxPoint x="520" y="80" as="sourcePoint" />
            <mxPoint x="570" y="30" as="targetPoint" />
          </mxGeometry>
        </mxCell>
        <mxCell id="5ul3691s-s8Z0BjRrySS-51" value="" style="endArrow=none;html=1;rounded=0;exitX=1;exitY=0.5;exitDx=0;exitDy=0;entryX=0;entryY=0.75;entryDx=0;entryDy=0;" edge="1" parent="1" source="5ul3691s-s8Z0BjRrySS-46" target="5ul3691s-s8Z0BjRrySS-48">
          <mxGeometry width="50" height="50" relative="1" as="geometry">
            <mxPoint x="520" y="130" as="sourcePoint" />
            <mxPoint x="570" y="80" as="targetPoint" />
          </mxGeometry>
        </mxCell>
        <mxCell id="5ul3691s-s8Z0BjRrySS-52" value="" style="endArrow=none;html=1;rounded=0;exitX=1;exitY=0.5;exitDx=0;exitDy=0;entryX=0;entryY=0.25;entryDx=0;entryDy=0;" edge="1" parent="1" source="5ul3691s-s8Z0BjRrySS-46" target="5ul3691s-s8Z0BjRrySS-49">
          <mxGeometry width="50" height="50" relative="1" as="geometry">
            <mxPoint x="534" y="160" as="sourcePoint" />
            <mxPoint x="584" y="110" as="targetPoint" />
          </mxGeometry>
        </mxCell>
        <mxCell id="5ul3691s-s8Z0BjRrySS-53" value="Xem&amp;nbsp;" style="rhombus;whiteSpace=wrap;html=1;" vertex="1" parent="1">
          <mxGeometry x="150" y="40" width="80" height="80" as="geometry" />
        </mxCell>
        <mxCell id="5ul3691s-s8Z0BjRrySS-54" value="" style="endArrow=none;html=1;rounded=0;exitX=1;exitY=0.5;exitDx=0;exitDy=0;" edge="1" parent="1" source="5ul3691s-s8Z0BjRrySS-53">
          <mxGeometry width="50" height="50" relative="1" as="geometry">
            <mxPoint x="360" y="120" as="sourcePoint" />
            <mxPoint x="410" y="80" as="targetPoint" />
          </mxGeometry>
        </mxCell>
        <mxCell id="5ul3691s-s8Z0BjRrySS-55" value="" style="endArrow=none;html=1;rounded=0;exitX=0.5;exitY=0;exitDx=0;exitDy=0;" edge="1" parent="1" source="5ul3691s-s8Z0BjRrySS-1">
          <mxGeometry width="50" height="50" relative="1" as="geometry">
            <mxPoint x="140" y="170" as="sourcePoint" />
            <mxPoint x="190" y="120" as="targetPoint" />
          </mxGeometry>
        </mxCell>
        <mxCell id="5ul3691s-s8Z0BjRrySS-56" value="Vé" style="rounded=1;whiteSpace=wrap;html=1;" vertex="1" parent="1">
          <mxGeometry x="500" y="232.5" width="120" height="60" as="geometry" />
        </mxCell>
        <mxCell id="5ul3691s-s8Z0BjRrySS-57" value="Tên Phòng" style="text;html=1;align=center;verticalAlign=middle;whiteSpace=wrap;rounded=0;" vertex="1" parent="1">
          <mxGeometry x="660" y="232.5" width="60" height="30" as="geometry" />
        </mxCell>
        <mxCell id="5ul3691s-s8Z0BjRrySS-58" value="Vị Trí Ghế" style="text;html=1;align=center;verticalAlign=middle;whiteSpace=wrap;rounded=0;" vertex="1" parent="1">
          <mxGeometry x="660" y="272.5" width="60" height="30" as="geometry" />
        </mxCell>
        <mxCell id="5ul3691s-s8Z0BjRrySS-59" value="&lt;b&gt;&lt;u&gt;Mã Vé&lt;/u&gt;&lt;/b&gt;" style="text;html=1;align=center;verticalAlign=middle;whiteSpace=wrap;rounded=0;" vertex="1" parent="1">
          <mxGeometry x="660" y="187.5" width="60" height="30" as="geometry" />
        </mxCell>
        <mxCell id="5ul3691s-s8Z0BjRrySS-60" value="" style="endArrow=none;html=1;rounded=0;entryX=0;entryY=0.5;entryDx=0;entryDy=0;exitX=1;exitY=0.5;exitDx=0;exitDy=0;" edge="1" parent="1" source="5ul3691s-s8Z0BjRrySS-56" target="5ul3691s-s8Z0BjRrySS-59">
          <mxGeometry width="50" height="50" relative="1" as="geometry">
            <mxPoint x="620" y="262.5" as="sourcePoint" />
            <mxPoint x="670" y="212.5" as="targetPoint" />
          </mxGeometry>
        </mxCell>
        <mxCell id="5ul3691s-s8Z0BjRrySS-61" value="" style="endArrow=none;html=1;rounded=0;entryX=0;entryY=0.5;entryDx=0;entryDy=0;" edge="1" parent="1" target="5ul3691s-s8Z0BjRrySS-57">
          <mxGeometry width="50" height="50" relative="1" as="geometry">
            <mxPoint x="620" y="267.5" as="sourcePoint" />
            <mxPoint x="670" y="217.5" as="targetPoint" />
          </mxGeometry>
        </mxCell>
        <mxCell id="5ul3691s-s8Z0BjRrySS-62" value="" style="endArrow=none;html=1;rounded=0;entryX=0;entryY=0.5;entryDx=0;entryDy=0;" edge="1" parent="1" target="5ul3691s-s8Z0BjRrySS-58">
          <mxGeometry width="50" height="50" relative="1" as="geometry">
            <mxPoint x="620" y="267.5" as="sourcePoint" />
            <mxPoint x="670" y="217.5" as="targetPoint" />
          </mxGeometry>
        </mxCell>
        <mxCell id="5ul3691s-s8Z0BjRrySS-63" value="Đặt" style="rhombus;whiteSpace=wrap;html=1;" vertex="1" parent="1">
          <mxGeometry x="520" y="342.5" width="80" height="80" as="geometry" />
        </mxCell>
        <mxCell id="5ul3691s-s8Z0BjRrySS-64" value="" style="endArrow=none;html=1;rounded=0;exitX=0.5;exitY=0;exitDx=0;exitDy=0;" edge="1" parent="1" source="5ul3691s-s8Z0BjRrySS-18">
          <mxGeometry width="50" height="50" relative="1" as="geometry">
            <mxPoint x="510" y="472.5" as="sourcePoint" />
            <mxPoint x="560" y="422.5" as="targetPoint" />
          </mxGeometry>
        </mxCell>
        <mxCell id="5ul3691s-s8Z0BjRrySS-65" value="" style="endArrow=none;html=1;rounded=0;" edge="1" parent="1">
          <mxGeometry width="50" height="50" relative="1" as="geometry">
            <mxPoint x="560" y="342.5" as="sourcePoint" />
            <mxPoint x="560" y="292.5" as="targetPoint" />
          </mxGeometry>
        </mxCell>
        <mxCell id="5ul3691s-s8Z0BjRrySS-66" value="&lt;b&gt;1 : n&lt;/b&gt;" style="text;html=1;align=center;verticalAlign=middle;whiteSpace=wrap;rounded=0;" vertex="1" parent="1">
          <mxGeometry x="590" y="330" width="60" height="30" as="geometry" />
        </mxCell>
      </root>
    </mxGraphModel>
  </diagram>
</mxfile>
